<?xml version="1.0" encoding="UTF-8"?>
<svg id="Layer_2" data-name="Layer 2" xmlns="http://www.w3.org/2000/svg" xmlns:xlink="http://www.w3.org/1999/xlink" viewBox="0 0 670.7 741.13">
  <defs>
    <style>
      .cls-1 {
        fill: #007b63;
      }

      .cls-2 {
        fill: #f2c438;
      }

      .cls-3 {
        fill: #191c2d;
      }

      .cls-4 {
        clip-path: url(#clippath);
      }

      .cls-5 {
        fill: none;
      }

      .cls-6 {
        fill: #f2a533;
      }
    </style>
    <clipPath id="clippath">
      <path id="Eye-2" data-name="Eye" class="cls-5" d="m288.31,281.37l79.76-16.59-14.83,40.58c-29.24-.13-64.93-23.99-64.93-23.99Z"/>
    </clipPath>
  </defs>
  <path class="cls-6" d="m25.29,213.23l320.64-121.77c9.88-3.75,21.03.02,26.61,8.99l273.65,440.26c6.97,11.22,2.61,26.01-9.33,31.64l-353.12,166.65c-10.88,5.13-23.86.62-29.21-10.15L13.35,243.72c-5.81-11.69-.27-25.85,11.94-30.49Z"/>
  <polygon class="cls-6" points="0 153.2 11.42 237.97 49.18 274.61 71.07 206.14 0 153.2"/>
  <polygon class="cls-6" points="670.65 487.1 648.33 559.5 616.01 515.67 670.65 487.1"/>
  <g>
    <path class="cls-2" d="m276.56,663.96c-.97,0-2.23-.47-2.89-1.79L20.34,152.55c-.52-1.05-.35-1.99-.11-2.6s.75-1.41,1.85-1.83L358.89,20.21c.37-.14.75-.21,1.13-.21.42,0,1.86.11,2.73,1.52l287.46,462.47c.63,1.01.54,1.97.35,2.6-.19.63-.63,1.48-1.71,1.99l-370.94,175.06c-.44.21-.89.31-1.35.31Z"/>
    <path class="cls-6" d="m353.07,43.82l270.21,434.72-339.01,159.99L46.5,160.24,353.07,43.82M360.02,0c-2.75,0-5.54.49-8.23,1.51L14.98,129.43c-12.82,4.87-18.65,19.74-12.54,32.03l253.33,509.62c4.05,8.15,12.25,12.88,20.8,12.88,3.32,0,6.69-.72,9.89-2.22l370.94-175.06c12.55-5.92,17.13-21.46,9.81-33.24L379.74,10.96C375.4,3.98,367.86,0,360.02,0h0Z"/>
  </g>
  <g>
    <path id="Head" class="cls-1" d="m326.82,224.5c-55.33-15.3-115.71,37.79-110.81,83.98,4.9,46.19,37.46,91.71,75.81,85.33l110.39-104.87-26.92-36.94,1.47-23.86-49.94-3.66Z"/>
    <path id="Eye" class="cls-2" d="m288.31,281.37l79.76-16.59-14.83,40.58c-29.24-.13-64.93-23.99-64.93-23.99Z"/>
    <g id="Pupil">
      <g class="cls-4">
        <circle id="Ball" class="cls-2" cx="328.11" cy="286.09" r="10.86"/>
      </g>
    </g>
    <path id="Jaw" class="cls-3" d="m387.73,259.64l11.63-7.51c90.24,110.32-39.68,187.87-92.98,156.37-48.78-27.45-61.74-60.28-67.72-75.43-5.98-15.15.67-35.29,19.8-31.17,19.14,4.12,27.11,24.32,39.21,25.39,12.1,1.06,43.08-8.27,43.08-8.27l-2.61-22.3,19.74-16.55,19.6,12.69,9.1-6.51,1.13-26.72Z"/>
    <path id="Cone" class="cls-1" d="m246.04,318.5l-5.6,30.75,5.66,10.08,29.95-20.72c1.49-17.96-14.6-29.13-30.01-20.11Z"/>
    <circle id="Ball-2" data-name="Ball" class="cls-2" cx="242.58" cy="357.8" r="16.29"/>
  </g>
</svg>