<?xml version="1.0" encoding="UTF-8"?>
<svg id="Layer_2" data-name="Layer 2" xmlns="http://www.w3.org/2000/svg" xmlns:xlink="http://www.w3.org/1999/xlink" viewBox="0 0 596.61 602.53">
  <defs>
    <style>
      .cls-1 {
        fill: #007b63;
      }

      .cls-2 {
        fill: #f2c438;
      }

      .cls-3 {
        stroke: #f2a533;
        stroke-miterlimit: 10;
        stroke-width: 40px;
      }

      .cls-3, .cls-4 {
        fill: none;
      }

      .cls-5 {
        fill: #191c2d;
      }

      .cls-6 {
        clip-path: url(#clippath);
      }

      .cls-7 {
        fill: #f2a533;
      }
    </style>
    <clipPath id="clippath">
      <path id="Eye-2" data-name="Eye" class="cls-4" d="m218.99,239.79l68.49-44.12.73,43.2c-27.34,10.37-69.21.91-69.21.91Z"/>
    </clipPath>
  </defs>
  <g>
    <path class="cls-2" d="m330.73,582.53c-1.8,0-3.59-.45-5.18-1.3l-65.51-34.87-.94-.78-.98-.63c-17.5-11.23-34.1-26.41-45.55-41.65l-.31-.41L23.57,277.06c-5.27-6.3-4.65-15.59,1.41-21.14L278.01,24.03c2.84-2.6,6.51-4.03,10.36-4.03,4.09,0,7.94,1.59,10.83,4.47l210.17,209.47c.84.84,1.59,1.79,2.24,2.83l1.34,2.17,1.85,1.77c13.11,12.54,24.53,28.46,32.16,44.83l.17.36.22.42,28.44,68.25c1.79,4.31.68,9.3-2.78,12.44l-234.83,212.66c-2.04,1.84-4.67,2.86-7.42,2.86h0Z"/>
    <path class="cls-7" d="m288.23,41.79l206.61,205.93,2.42,3.92,3.69,3.53c11.36,10.87,21.25,24.66,27.86,38.83l.32.7.03.06,25.7,61.68-225.48,204.2-58.12-30.94-.29-.24-2.05-1.31c-15.58-10-30.29-23.42-40.37-36.83l-.62-.82-.66-.79L41.77,267.66,288.23,41.79m.13-41.79c-8.55,0-17.1,3.08-23.87,9.29L11.46,241.18c-13.92,12.76-15.35,34.21-3.24,48.71l188.36,225.45s0,0,0,0c13.68,18.2,32.3,34.62,50.74,46.46,1,.83,2.11,1.58,3.32,2.23l65.51,34.87c4.59,2.45,9.6,3.64,14.58,3.64,7.54,0,15-2.74,20.85-8.03l234.83-212.66c9.74-8.82,12.87-22.82,7.82-34.95l-28.48-68.34c-.21-.5-.44-.98-.68-1.44-9.16-19.65-22.48-37.46-36.46-50.83-1.42-2.3-3.13-4.49-5.13-6.49L313.31,10.31c-6.88-6.86-15.91-10.31-24.95-10.31h0Z"/>
  </g>
  <line class="cls-3" x1="533.99" y1="258.34" x2="239.64" y2="519.26"/>
  <g>
    <path id="Head" class="cls-1" d="m234.53,172.89c-57.13,5.58-94.43,76.81-73.27,118.16,21.16,41.35,67.89,72.15,101.39,52.43l65.38-137.5-38.39-24.81-7.19-22.79-47.92,14.51Z"/>
    <path id="Eye" class="cls-2" d="m218.99,239.79l68.49-44.12.73,43.2c-27.34,10.37-69.21.91-69.21.91Z"/>
    <g id="Pupil">
      <g class="cls-6">
        <circle id="Ball" class="cls-2" cx="257.84" cy="229.91" r="10.86"/>
      </g>
    </g>
    <path id="Jaw" class="cls-5" d="m303.99,183.82l8.16-11.18c123.83,70.57,30.41,189.59-30.65,179.32-55.38-8.11-79.26-34.1-90.28-46.09-11.02-12-12.05-33.18,7.3-36.2,19.34-3.02,34.04,12.97,45.71,9.62,11.67-3.35,37.24-23.19,37.24-23.19l-10.44-19.87,12.48-22.53,22.85,4.81,6.16-9.35-8.54-25.34Z"/>
    <path id="Cone" class="cls-1" d="m192.88,289.61l5.82,30.71,8.89,7.37,20.52-30.09c-5.06-17.3-24.08-21.94-35.23-8Z"/>
    <circle id="Ball-2" data-name="Ball" class="cls-2" cx="203.75" cy="327.54" r="16.29"/>
  </g>
  <ellipse class="cls-5" cx="423.18" cy="438.73" rx="27.29" ry="5.88" transform="translate(-184.52 391.12) rotate(-41.55)"/>
</svg>