<?xml version="1.0" encoding="UTF-8"?>
<svg id="Layer_2" data-name="Layer 2" xmlns="http://www.w3.org/2000/svg" xmlns:xlink="http://www.w3.org/1999/xlink" viewBox="0 0 621.2 722.12">
  <defs>
    <style>
      .cls-1 {
        fill: #007b63;
      }

      .cls-2 {
        fill: #f2c438;
      }

      .cls-3 {
        fill: #191c2d;
      }

      .cls-4 {
        clip-path: url(#clippath);
      }

      .cls-5, .cls-6 {
        fill: none;
      }

      .cls-7 {
        fill: #f2a533;
      }

      .cls-6 {
        stroke: #f2a533;
        stroke-linecap: round;
        stroke-miterlimit: 10;
        stroke-width: 35.35px;
      }
    </style>
    <clipPath id="clippath">
      <path id="Eye-2" data-name="Eye" class="cls-5" d="m335.42,277.63l39.06,34.84-26.63,7.86c-11.11-15.15-12.43-42.7-12.43-42.7Z"/>
    </clipPath>
  </defs>
  <g>
    <path class="cls-2" d="m299.98,700.48c-2.7,0-5.24-.73-7.56-2.18L28.4,533.69c-6.71-4.19-8.77-13.06-4.58-19.77L271.24,117.1c2.64-4.23,7.21-6.76,12.21-6.76,2.7,0,5.24.73,7.56,2.18l264.02,164.62c6.71,4.19,8.77,13.06,4.58,19.77l-247.42,396.82c-2.64,4.23-7.21,6.76-12.21,6.76Z"/>
    <path class="cls-7" d="m285.75,134.73l251.64,156.9-239.71,384.44-251.64-156.9,239.71-384.44m-2.3-46.04c-12.01,0-23.75,6.01-30.58,16.95L5.46,502.46c-10.52,16.87-5.37,39.07,11.5,49.58l264.02,164.62c5.92,3.69,12.51,5.46,19.01,5.46,12.01,0,23.75-6.01,30.58-16.95l247.42-396.82c10.52-16.87,5.37-39.07-11.5-49.58L302.46,94.15c-5.92-3.69-12.51-5.46-19.01-5.46h0Z"/>
  </g>
  <g>
    <path class="cls-2" d="m216.51,123.19c-.84-7.83,3.43-29.71,18.86-56.43,15.43-26.73,32.24-41.36,39.44-44.55l309.21,178.53-58.3,100.98L216.51,123.19Z"/>
    <path class="cls-7" d="m276.31,48.06l278.16,160.6-36.66,63.5L239.64,111.56c2.07-8.09,6.46-20.11,14.47-33.98,8.01-13.87,16.22-23.68,22.19-29.52m-.25-48.06c-15.51,0-40.25,22.72-59.43,55.94-22.08,38.24-28.42,75.9-14.17,84.13l331.19,191.22,79.95-138.47L282.4,1.6c-1.87-1.08-4-1.6-6.35-1.6h0Z"/>
  </g>
  <g>
    <path class="cls-2" d="m558.22,288.72c2.8-7.99,6.98-17.46,13.07-28.02,6.09-10.55,12.21-18.91,17.73-25.33-2.8,7.99-6.98,17.46-13.07,28.02-6.09,10.56-12.21,18.91-17.73,25.33Zm50.89-70.6s0,0,0,0Z"/>
    <path class="cls-7" d="m607.25,191.22c-15.51,0-40.25,22.72-59.43,55.94-22.08,38.24-28.42,75.9-14.17,84.13,1.87,1.08,4,1.6,6.35,1.6,15.51,0,40.25-22.72,59.42-55.94,22.08-38.24,28.42-75.9,14.17-84.13-1.87-1.08-4-1.6-6.35-1.6h0Z"/>
  </g>
  <g>
    <path class="cls-2" d="m532.02,273.6c2.8-7.99,6.98-17.46,13.07-28.02,6.09-10.55,12.21-18.91,17.73-25.33-2.8,7.99-6.98,17.46-13.07,28.02-6.09,10.56-12.21,18.91-17.73,25.33Zm50.89-70.6h0Z"/>
    <path class="cls-7" d="m581.05,176.09c-15.51,0-40.25,22.72-59.42,55.94-22.08,38.24-28.42,75.9-14.17,84.13,1.87,1.08,4,1.6,6.35,1.6,15.51,0,40.25-22.72,59.42-55.94,22.08-38.24,28.42-75.9,14.17-84.13-1.87-1.08-4-1.6-6.35-1.6h0Z"/>
  </g>
  <g>
    <path id="Head" class="cls-1" d="m379.52,275.78c-13.25-34.42-63.75-45.3-85.73-25.11-21.98,20.19-33.03,54.41-15.08,71.77l96.35,16.91,8.78-28.02,12.88-8.36-17.2-27.18Z"/>
    <path id="Eye" class="cls-2" d="m335.42,277.63l39.06,34.84-26.63,7.86c-11.11-15.15-12.43-42.7-12.43-42.7Z"/>
    <g id="Pupil">
      <g class="cls-4">
        <circle id="Ball" class="cls-2" cx="348.2" cy="299.99" r="6.98"/>
      </g>
    </g>
    <path id="Jaw" class="cls-3" d="m384.65,320.66l8.32,3.13c-22.46,88.78-112.18,51.34-116.29,11.77-4.48-35.68,7.52-54.93,13.06-63.81s18.48-13.15,23.67-1.69c5.19,11.46-2.19,23.3,1.88,29.95,4.08,6.65,20.74,19.08,20.74,19.08l10.52-9.87,16.09,3.87.94,14.98,6.84,2.21,14.23-9.63Z"/>
    <path id="Cone" class="cls-1" d="m300.1,270l-18.02,8.87-3.04,6.77,22.15,7.55c9.84-6.1,9.46-18.67-1.09-23.19Z"/>
    <circle id="Ball-2" data-name="Ball" class="cls-2" cx="278.48" cy="283.24" r="10.47"/>
  </g>
  <circle class="cls-7" cx="194.84" cy="366.71" r="19.92"/>
  <circle class="cls-7" cx="155.59" cy="429.66" r="19.92"/>
  <circle class="cls-7" cx="113.71" cy="496.84" r="19.92"/>
  <line class="cls-6" x1="247.02" y1="398.41" x2="367.75" y2="470.83"/>
  <line class="cls-6" x1="207.65" y1="464.06" x2="328.37" y2="536.47"/>
  <line class="cls-6" x1="167.14" y1="531.59" x2="287.86" y2="604"/>
</svg>