<?xml version="1.0" encoding="UTF-8"?>
<svg id="Layer_1" data-name="Layer 1" xmlns="http://www.w3.org/2000/svg" xmlns:xlink="http://www.w3.org/1999/xlink" viewBox="0 0 128 128">
  <defs>
    <style>
      .cls-1 {
        fill: #007b63;
      }

      .cls-2 {
        fill: #f2c438;
      }

      .cls-3 {
        fill: #191c2d;
      }

      .cls-4 {
        clip-path: url(#clippath);
      }

      .cls-5 {
        fill: none;
      }

      .cls-6 {
        fill: #f2a533;
      }
    </style>
    <clipPath id="clippath">
      <path id="Eye-2" data-name="Eye" class="cls-5" d="m57,45l29.57,5.1-10.57,11.9c-10-4-19-17-19-17Z"/>
    </clipPath>
  </defs>
  <g id="Duplicate">
    <path d="m54.74,24.06c1.18,0,2.5.04,3.83.11.37.02.74.01,1.12-.02.56-.05,1.11.07,1.67.1.83.05,1.66.2,2.46.4.54.14,1.08.28,1.61.45.58.18,1.18.31,1.76.52.74.26,1.52.42,2.23.75.74.34,1.53.53,2.25.9.32.16.65.3.94.53.03.02.06.05.1.07.9.37,1.69.95,2.58,1.33.41.17.75.45,1.12.69.54.34,1.11.63,1.66.94.21.11.43.21.64.33.55.33,1.14.56,1.73.81.66.27,1.32.55,1.99.81.49.19,1,.36,1.5.54.74.27,1.46.56,2.21.8.91.29,1.81.62,2.74.86.46.12.91.29,1.36.44.29.1.59.16.89.21.46.08.91.19,1.37.28.66.13,1.08.56,1.32,1.16.18.46.34.92.62,1.33.07.1.08.22.09.34,0,.33-.09.66-.02.99.01.05,0,.12-.03.15-.27.35-.34.81-.58,1.18-.06.1-.1.22-.14.33-.11.3-.21.6-.41.86-.08.1-.14.23-.15.36-.05.43-.28.8-.47,1.17-.22.42-.41.87-.5,1.34-.06.33-.27.58-.41.86-.22.46-.32.9-.14,1.38.4,1.08.57,2.21.86,3.31.08.32.16.64.26.96.1.33.14.35.48.34.28,0,.55-.04.82-.14.35-.13.73-.12,1.1-.14.15-.01.3-.01.43-.06.54-.19,1.1-.31,1.65-.47.43-.13.87-.1,1.29-.22.17-.05.31.07.4.21.06.09.09.19.12.29.25.84.43,1.7.5,2.57.03.35.08.69.17,1.02.14.5.23,1.01.42,1.49.16.42.21.88.28,1.32.18,1.1.27,2.21.6,3.29.16.51.22,1.07.26,1.61.04.6.1,1.19.14,1.79.07.9.19,1.81.04,2.7-.13.76-.02,1.51-.13,2.26-.06.37.03.77.01,1.15-.01.33-.04.66-.12.99-.1.42-.03.85-.11,1.27-.17.95-.31,1.91-.48,2.87-.16.92-.44,1.8-.57,2.73-.11.8-.37,1.57-.6,2.35-.15.51-.36,1-.44,1.53-.04.27-.16.51-.29.74-.34.61-.51,1.28-.76,1.93-.13.32-.28.63-.4.95-.2.56-.44,1.11-.69,1.65-.24.5-.52.98-.77,1.48-.45.88-1.22,1.5-1.83,2.25-.48.59-1.09,1.04-1.68,1.51-.45.36-.92.68-1.34,1.07-.21.2-.47.35-.71.51-.37.23-.69.54-1.11.7-.11.04-.21.13-.28.22-.26.31-.62.49-.97.68-1.23.68-2.46,1.37-3.69,2.06-1.12.63-2.25,1.25-3.46,1.7-.77.29-1.53.62-2.22,1.07-.11.07-.24.11-.37.13-.76.12-1.51.29-2.24.54-.75.25-1.52.36-2.29.52-.41.08-.84.05-1.26.12-.47.08-.94.2-1.4.29-.59.1-1.17.24-1.76.35-.22.04-.44.09-.66.14-.39.09-.78.16-1.18.14-.29-.02-.58.07-.87.09-1.07.08-2.15.17-3.22.21-.49.02-.98.06-1.47.06-.86-.02-1.69-.22-2.5-.48-.34-.11-.68-.23-1.05-.19-.08,0-.17,0-.23-.04-.36-.21-.78-.26-1.13-.47-.03-.02-.07-.04-.11-.04-.59-.07-1.1-.38-1.67-.5-.78-.17-1.41-.58-2.04-1.02-.08-.05-.15-.13-.23-.16-.69-.24-1.25-.69-1.85-1.09-.47-.31-.87-.7-1.27-1.09-.13-.13-.26-.27-.41-.38-.4-.28-.66-.68-.97-1.05-.36-.44-.65-.94-1.07-1.33-.26-.24-.55-.47-.8-.72-.76-.73-1.45-1.51-2.09-2.35-.3-.39-.6-.79-.84-1.2-.43-.75-1.01-1.4-1.39-2.18-.13-.27-.32-.52-.49-.77-.17-.25-.33-.51-.44-.8-.11-.26-.32-.49-.49-.72-.21-.28-.4-.56-.55-.88-.08-.17-.21-.31-.38-.39-.68-.33-1.34-.7-1.94-1.17-.55-.43-1.09-.87-1.61-1.36-.5-.47-.93-1.02-1.5-1.42-.23-.16-.42-.38-.57-.61-.25-.36-.54-.69-.84-1.01-.22-.23-.37-.52-.57-.77-.72-.9-1.42-1.83-2.12-2.74-.08-.11-.18-.21-.23-.33-.27-.65-.63-1.25-.99-1.86-.57-.98-.94-2.02-1.22-3.11-.1-.4-.29-.64-.7-.77-.53-.16-.99-.46-1.43-.79-.39-.3-.69-.7-.9-1.15-.05-.1-.07-.21-.13-.29-.53-.7-.73-1.52-.89-2.36-.06-.32-.06-.66.03-.99.14-.53.19-1.07.28-1.61.05-.3.11-.6.3-.86.02-.02.04-.04.04-.07.11-.5.44-.87.74-1.25.16-.21.22-.45.21-.71-.04-1.42,0-2.85.12-4.27.1-1.24.19-2.49.36-3.73.1-.71.17-1.42.34-2.12.02-.08.04-.16.04-.24-.07-.8.27-1.5.55-2.22.13-.32.24-.65.25-1,0-.09.02-.19.06-.27.4-.66.54-1.41.81-2.12.15-.39.2-.83.36-1.22.27-.67.44-1.39.9-1.99.17-.23.29-.51.4-.78.2-.5.52-.92.81-1.36.32-.49.65-.97.99-1.45.12-.17.23-.36.37-.52.75-.91,1.4-1.91,2.19-2.79.18-.2.37-.38.57-.56.69-.62,1.34-1.28,2.04-1.9.48-.43.98-.79,1.5-1.17.32-.23.6-.52.89-.79.5-.47,1.09-.79,1.69-1.12.45-.25.89-.53,1.33-.79.13-.08.24-.18.37-.23.9-.36,1.77-.8,2.62-1.25.54-.28,1.13-.39,1.68-.62.88-.36,1.81-.51,2.69-.87.38-.15.8-.19,1.2-.28.72-.18,1.46-.29,2.16-.56.41-.16.84-.1,1.41-.15Zm44.39,40.82c.13-1.2,0-2.24-.13-3.28-.08-.59-.2-1.18-.29-1.77-.18-1.24-.39-2.47-.71-3.68-.12-.45-.21-.9-.28-1.36-.07-.46-.23-.9-.4-1.34-.1-.24-.29-.38-.53-.34-.39.06-.8.09-1.16.28-.27.15-.56.27-.85.34-.41.1-.63.35-.79.72-.32.73-.66,1.45-1.01,2.17-.14.29-.28.57-.34.89-.01.08-.03.16-.08.22-.28.35-.33.78-.46,1.18-.03.09-.04.19-.09.26-.36.57-.47,1.24-.71,1.85-.07.17-.15.31-.35.34-.42.08-.83.19-1.25.25-.51.08-1.04.07-1.54.18-.56.12-1.14.14-1.69.27-.51.12-.88-.14-1.15-.47-.29-.36-.61-.7-.86-1.09-.23-.36-.5-.68-.78-1.01-.48-.57-.97-1.13-1.42-1.73-.48-.64-1.02-1.22-1.61-1.77-.32-.3-.65-.39-1.06-.26-.79.24-1.61.37-2.35.75-.23.12-.47.19-.71.26-.64.17-1.24.47-1.88.64-.39.1-.77.3-1.15.46-.34.15-.57.38-.52.8.02.14.01.3-.04.43-.15.39-.21.8-.34,1.19-.22.68-.21,1.42-.49,2.09-.01.03,0,.08-.01.12-.13.65-.25,1.3-.38,1.95-.12.56-.28,1.11-.39,1.67-.07.33-.25.52-.56.59-.21.05-.42.07-.63.06-.49-.02-.98-.05-1.47-.07-.24-.01-.48.01-.72-.02-1.14-.14-2.28-.21-3.42-.3-.38-.03-.77-.02-1.15-.13-1.14-.32-2.33-.42-3.49-.62-.54-.09-1.08-.19-1.59-.35-.89-.28-1.78-.55-2.63-.92-.68-.29-1.32-.66-1.87-1.12-.5-.42-1.03-.85-1.31-1.47-.03-.07-.11-.12-.17-.17-.14-.11-.23-.26-.31-.41-.11-.19-.22-.4-.35-.58-.49-.67-.79-1.44-1.15-2.18-.26-.54-.52-1.07-.78-1.61-.21-.44-.43-.89-.56-1.36-.17-.6-.53-1.09-.84-1.62-.37-.64-.91-1.18-1.2-1.87-.07-.17-.19-.32-.32-.46-.37-.37-.74-.73-1.1-1.1-.21-.21-.45-.36-.71-.5-.85-.45-1.77-.71-2.7-.94-.37-.09-.76-.15-1.14-.15-.45,0-.9-.02-1.35-.03-.72-.01-1.41.17-2.03.52-.42.24-.84.5-1.22.82-.48.4-.86.85-1.06,1.46-.12.35-.21.71-.33,1.06-.13.4-.1.81-.09,1.23,0,.08.02.17.11.19.09.02.15-.04.19-.11.38-.61.89-1.12,1.21-1.78.17-.35.33-.7.74-.85.07-.03.13-.09.18-.15.13-.12.28-.21.44-.26.59-.19,1.2-.28,1.81-.19.73.11,1.46.27,2.19.42.86.18,1.61.6,2.32,1.1.09.06.16.14.23.22.36.4.74.8,1.02,1.27.27.47.59.91.76,1.44.3.97.52,1.95.62,2.96.01.11.02.21.05.31.1.31.05.61-.06.9-.13.34-.22.68-.3,1.03-.15.65-.42,1.24-.82,1.76-.4.51-.75,1.09-1.45,1.31-.35.11-.65.37-.99.5-.45.17-.88.36-1.32.54-.98.41-1.96.83-3.01,1.04-.47.09-.82.33-.93.82-.17.8-.63,1.46-1.08,2.12-.24.35-.5.69-.86.94-.19.13-.23.32-.2.53.03.2.07.39.12.59.12.42.08.89.24,1.29.33.81.53,1.67.81,2.5.1.31.32.55.43.85.19.48.39.96.58,1.44.32.8.71,1.57,1.04,2.37.23.57.59,1.07.81,1.64.36.92.92,1.73,1.34,2.62.18.38.48.67.64,1.05.18.43.32.88.73,1.15.03.02.05.06.07.1.31.62.71,1.18,1.17,1.7.2.22.26.53.43.76.61.85,1.23,1.7,1.86,2.53.27.36.61.66.83,1.07.02.05.07.09.11.12.38.29.69.66,1.1.92.16.1.3.23.4.39.11.17.25.31.4.44.4.33.78.68,1.1,1.09.09.11.21.2.33.29.86.64,1.72,1.29,2.6,1.92.47.34.97.65,1.52.86.56.22,1.11.45,1.62.76.36.21.79.3,1.12.59.04.04.12.05.19.06.54.14,1.07.31,1.61.48.74.24,1.49.38,2.27.23.1-.02.21-.01.32-.01.49.02.98.05,1.47.11.37.04.74.04,1.11.04.57,0,1.14-.09,1.71-.07.67.03,1.33-.05,1.99-.1.21-.02.43-.03.64.01.38.08.74.03,1.11-.07.23-.07.47-.09.71-.11.65-.06,1.3-.07,1.9-.4.07-.04.15-.04.23-.06.72-.18,1.44-.36,2.15-.59.64-.21,1.28-.44,1.97-.49.11,0,.2-.05.29-.11.3-.19.62-.3.96-.37.12-.02.23-.06.34-.11.59-.27,1.19-.54,1.78-.81.16-.07.32-.13.49-.15.4-.06.77-.19,1.11-.41.2-.13.42-.22.66-.26.31-.06.61-.18.88-.37.28-.2.6-.35.9-.49.71-.32,1.43-.64,2.11-1.02.66-.36,1.28-.76,1.88-1.21,1.07-.79,2.08-1.65,2.99-2.64.58-.62,1.15-1.24,1.62-1.96.4-.62.84-1.22,1.19-1.88.55-1.03,1.2-2.01,1.61-3.11.2-.54.52-1.03.62-1.59.17-.98.6-1.87.85-2.82.16-.62.43-1.2.64-1.8.26-.71.48-1.44.62-2.18.16-.85.31-1.7.54-2.53.08-.27.11-.55.12-.83.03-.57.04-1.14.09-1.71.09-1.18.21-2.35.14-3.54-.03-.44,0-.88,0-1.17ZM58.06,26.54c-.39-.06-.9.02-1.4.07-.57.06-1.13.11-1.7.22-.63.12-1.25.28-1.88.36-.59.08-1.18.15-1.75.35-.6.21-1.22.37-1.84.53-.3.07-.61.16-.91.28-.47.19-.95.33-1.43.48-.58.18-1.16.38-1.72.61-.66.27-1.3.6-1.97.86-.5.2-1,.43-1.46.72-.6.37-1.22.7-1.7,1.24-.07.08-.17.12-.26.19-.44.36-.97.61-1.37,1.03-.42.45-.87.86-1.34,1.25-.16.14-.31.29-.44.46-.44.56-.87,1.14-1.36,1.67-.4.44-.74.94-1.13,1.39-.45.52-.8,1.08-1.14,1.67-.5.86-.95,1.75-1.36,2.66-.14.32-.26.64-.42.94-.3.58-.55,1.18-.76,1.8-.26.78-.51,1.57-.74,2.36-.12.43-.33.85-.38,1.3-.06.52-.19,1.02-.33,1.52-.18.68-.35,1.37-.41,2.07-.04.57-.15,1.14-.27,1.69-.26,1.22-.41,2.46-.55,3.7-.02.21-.02.43.03.64.06.26.14.3.39.2.41-.16.84-.27,1.26-.36.73-.17,1.47-.26,2.21-.31.3-.02.34-.07.34-.36,0-.17-.02-.35.02-.52.11-.45.15-.92.22-1.38.09-.62.15-1.24.29-1.85.23-1.06.69-2.04,1.12-3.02.28-.63.66-1.19,1.07-1.72.36-.47.78-.9,1.21-1.31.45-.43.96-.76,1.48-1.08.56-.34,1.17-.59,1.82-.66.7-.07,1.41-.07,2.1.07.43.09.87.17,1.26.36.39.19.79.38,1.18.55.93.42,1.68,1.07,2.43,1.71.49.42.93.91,1.35,1.41.88,1.07,1.7,2.18,2.2,3.49.14.37.34.73.45,1.11.09.31.19.6.34.89.14.28.28.57.42.86.09.19.09.41.19.61.21.39.34.81.59,1.17.11.16.18.35.22.55.06.3.2.58.35.84.49.85,1.22,1.47,2,2.03.31.22.62.48.98.6.33.11.63.29.91.48.1.07.21.11.32.17.34.2.75.19,1.1.34.51.23,1.06.33,1.59.48.8.24,1.67.15,2.47.41.14.04.29.05.42.12.15.08.29.08.46.08.48,0,.96-.15,1.43-.02.51.14,1.06.1,1.55.35.03.02.08.01.12.01.76,0,1.51.03,2.27.09.39.03.53-.06.7-.39.6-1.18.99-2.44,1.42-3.68.25-.74.49-1.49.76-2.22.14-.39.08-.56-.24-.83-.29-.24-.65-.35-.98-.53-.36-.2-.77-.34-1.07-.6-.4-.35-.82-.66-1.24-.99-.45-.35-.88-.73-1.34-1.07-.51-.38-1.01-.77-1.52-1.15-.6-.44-1.08-1.03-1.75-1.38-.05-.02-.08-.07-.12-.11-.32-.33-.69-.63-.98-.99-.1-.12-.24-.21-.36-.31-.38-.33-.71-.71-1.16-.95-.03-.02-.05-.06-.08-.09-.56-.59-1.12-1.17-1.66-1.77-.25-.27-.58-.47-.75-.82-.37-.74-.93-1.35-1.34-2.07-.46-.82-1-1.6-1.39-2.46-.23-.5.07-.9.62-.89.27,0,.53.05.79.07.62.05,1.25.1,1.86.21,1.44.25,2.87.56,4.31.81.42.07.82.23,1.24.27.74.07,1.47.22,2.21.32.39.05.8.09,1.18.19.45.12.91.21,1.37.27.65.08,1.28.23,1.91.39.27.07.54.12.82.14.56.02,1.11.07,1.65.24.33.1.67.18,1,.26.65.15,1.3.26,1.95.41.64.15,1.29.33,1.96.36.22.01.45,0,.68.05,1.07.26,2.15.5,3.26.5.08,0,.16.02.24.04.61.13,1.23.21,1.83.37.56.15,1.13.29,1.64.58.23.14.28.23.21.49-.05.17-.11.32-.25.45-.09.08-.17.18-.22.28-.14.28-.33.51-.51.76-.38.51-.87.94-1.17,1.51-.17.32-.38.61-.63.87-.27.28-.52.57-.75.88-.26.35-.51.72-.76,1.08-.12.17-.19.38-.07.56.27.41.49.86.84,1.2.24.24.42.51.55.81.1.23.25.44.41.63.11.14.22.27.32.41.39.54.78,1.07,1.25,1.54.21.2.45.39.58.66.16.33.41.59.66.85.11.12.23.23.3.37.12.22.3.26.54.25.75-.04,1.48-.14,2.22-.24.16-.02.29-.08.37-.21.27-.47.56-.94.68-1.48.06-.3.14-.59.25-.88.1-.26.18-.53.26-.79.19-.59.31-1.21.65-1.75.08-.13.15-.29.15-.45.01-.53-.03-1.07-.19-1.57-.35-1.13-.82-2.22-1.07-3.38-.03-.12-.07-.23-.11-.34-.27-1-.66-1.97-.67-3.03,0-.22,0-.42.11-.61.26-.49.55-.97.76-1.48.29-.69.62-1.37.86-2.09.3-.92.65-1.83.98-2.74.05-.14.07-.28.07-.43-.02-.67-.4-1.13-1.04-1.33-.87-.28-1.76-.5-2.63-.78-1.28-.41-2.54-.86-3.81-1.28-.19-.06-.38-.12-.56-.21-.56-.28-1.15-.48-1.73-.71-1.06-.42-2.16-.74-3.19-1.24-.23-.11-.49-.15-.7-.27-.6-.36-1.27-.58-1.87-.97-.67-.44-1.38-.84-2.11-1.2-.9-.45-1.75-1-2.67-1.41-.59-.27-1.16-.6-1.78-.81-.74-.25-1.45-.58-2.18-.86-.37-.14-.75-.26-1.14-.35-.78-.19-1.6-.26-2.34-.62-.03-.02-.08-.02-.12-.02-.44.04-.87-.11-1.29-.18-.95-.17-1.89-.38-2.87-.39-.69,0-1.38-.07-2.18-.08Zm-12.68,32.32c-.03-.66-.09-1.29-.29-1.88-.15-.43-.31-.85-.5-1.26-.19-.4-.27-.84-.52-1.21-.46-.68-.97-1.33-1.72-1.72-.19-.1-.38-.2-.56-.3-.87-.47-1.78-.62-2.76-.4-.42.1-.75.29-.97.64-.34.53-.76.99-1.08,1.53-.26.45-.57.86-.86,1.29-.43.64-.94,1.22-1.31,1.9-.13.25-.27.49-.44.71-.26.32-.2.49.2.57.53.11.96.38,1.31.78.34.39.75.71,1.04,1.14.26.38.59.72.71,1.19.17.66.36,1.31.55,1.96.1.36.22.59.8.43.65-.18,1.29-.4,1.93-.6.46-.14.91-.29,1.38-.39.58-.11,1.18-.14,1.63-.6.03-.03.07-.04.11-.05.14-.04.21-.14.27-.27.23-.49.5-.97.61-1.51.03-.14.07-.29.14-.41.28-.5.29-1.04.31-1.55Zm-9.17,5.88c-.02-.85-.24-1.66-.63-2.4-.19-.35-.48-.66-.7-1-.03-.04-.08-.07-.12-.1-.24-.26-.58-.37-.84-.6-.26-.24-.56-.39-.88-.53-.63-.28-1.28-.44-1.97-.31-.47.09-.89.34-1.38.39-.05,0-.09.05-.14.07-.39.12-.61.46-.92.68-.44.32-.77.74-1.04,1.19-.52.85-.78,1.8-.91,2.78-.09.7-.03,1.4.21,2.08.11.29.31.52.45.8.2.39.51.64.95.7.16.02.27.11.35.23.14.21.35.32.58.41.6.23,1.25.22,1.87.39.06.02.13,0,.2,0,.21-.03.43,0,.63-.04.57-.08,1.15-.06,1.68-.41.8-.53,1.5-1.14,1.94-2,.2-.39.36-.79.48-1.22.1-.36.22-.71.19-1.09Zm37.8-15.42c0,.47-.06.94-.19,1.38-.29.95-.78,1.79-1.38,2.58-.36.48-.75.89-1.33,1.1-.02,0-.05.02-.07.04-.38.25-.38.57.02.79.43.24.85.48,1.29.7.22.11.44.23.72.15.68-.19,1.34-.44,2.02-.58.3-.06.6-.12.89-.2.87-.25,1.72-.54,2.6-.73.31-.07.55-.23.76-.48.53-.6.91-1.31,1.38-1.95.57-.78,1.19-1.53,1.72-2.34.34-.52.76-.99,1.13-1.49.22-.3.12-.54-.23-.61-.27-.05-.55-.1-.83-.13-1.51-.14-3-.4-4.49-.64-.97-.16-1.93-.37-2.89-.57-.47-.1-.95-.09-1.43-.11-.08,0-.16.02-.23.04-.19.07-.23.15-.13.33.47.85.61,1.77.66,2.72Zm-8.13.91s0,.08,0,.12c-.05.81.25,1.43.91,1.91.37.26.75.5,1.12.75.18.13.39.27.62.23.43-.07.87-.15,1.22-.45.62-.53,1.16-1.09,1.43-1.91.26-.8.34-1.54-.03-2.35-.47-1-1.26-1.47-2.3-1.58-.74-.08-1.37.25-1.98.61-.07.04-.13.1-.16.17-.44.78-.86,1.56-.83,2.5Zm-31.88,20.54c-.07.02-.16.05-.25.08-.71.25-1.43.4-2.18.4-.11,0-.21,0-.32.03-.27.04-.33.15-.27.41.06.23.12.46.18.69.11.42.22.84.41,1.24.24.5.5.98.76,1.47.71,1.34,1.69,2.47,2.73,3.56.34.35.68.71,1.03,1.05.46.44.93.87,1.44,1.26.07.06.16.1.24.13.06.03.13.04.18-.02.05-.06.04-.13.01-.19-.03-.07-.07-.14-.11-.21-.19-.36-.39-.72-.57-1.09-.14-.29-.18-.61-.33-.9-.29-.55-.47-1.16-.68-1.74-.14-.39-.35-.76-.44-1.15-.17-.79-.54-1.49-.8-2.25-.15-.45-.32-.9-.42-1.37-.09-.4-.25-.78-.37-1.18-.03-.11-.11-.21-.27-.23Zm24.96-27.24c-.07,0-.12,0-.17,0-.18,0-.35.03-.44.21-.09.19-.03.37.09.52.11.13.23.26.35.38.17.17.34.34.46.54.31.5.72.92,1.13,1.34.43.45.92.84,1.31,1.33.47.6,1.07,1.07,1.62,1.58.06.05.13.1.19.14.09.06.18.06.23-.05.04-.08.1-.17.1-.25,0-.61.18-1.17.39-1.74.28-.75.59-1.48,1.23-2.01.08-.07.16-.14.24-.21.1-.09.2-.19.16-.34-.04-.14-.17-.16-.29-.18-.51-.07-1.01-.25-1.51-.34-.94-.16-1.86-.43-2.79-.61-.77-.15-1.54-.25-2.3-.32Z"/>
  </g>
  <g id="Coin">
    <circle class="cls-2" cx="64" cy="64" r="59"/>
    <path class="cls-6" d="m64,10c29.78,0,54,24.22,54,54s-24.22,54-54,54S10,93.78,10,64,34.22,10,64,10m0-10C28.65,0,0,28.65,0,64s28.65,64,64,64,64-28.65,64-64S99.35,0,64,0h0Z"/>
  </g>
  <path id="Head" class="cls-1" d="m77.89,30.72c-16.89-12.72-44.75-2.7-49.32,13.79s.43,36.49,14.43,39.49l52-21-4.23-16.3,3.73-7.97-16.61-8.01Z"/>
  <path id="Eye" class="cls-2" d="m57,45l29.57,5.1-10.57,11.9c-10-4-19-17-19-17Z"/>
  <g id="Pupil">
    <g class="cls-4">
      <circle id="Ball" class="cls-2" cx="70" cy="52" r="4"/>
    </g>
  </g>
  <path id="Jaw" class="cls-3" d="m94,51l5-1c16,50-39,59-53,41-13-16-13-29-13-35s5-12,11-8,6,12,10,14,15.88,2.99,15.88,2.99l2.12-7.99,9-3,5,7,4-1,4-9Z"/>
  <path id="Cone" class="cls-1" d="m37.5,52l-6.08,9.78.58,4.22,13.06-3.05c2.94-5.95-1.06-11.95-7.56-10.95Z"/>
  <circle id="Ball-2" data-name="Ball" class="cls-2" cx="31" cy="65" r="6"/>
</svg>